<svg width="32" height="32" viewBox="0 0 32 32" fill="none" xmlns="http://www.w3.org/2000/svg">
  <!-- Fondo del círculo -->
  <circle cx="16" cy="16" r="15" fill="url(#gradient)" stroke="#3B82F6" stroke-width="1"/>
  
  <!-- Icono de documento/ley -->
  <path d="M10 8C10 7.44772 10.4477 7 11 7H16L21 12V22C21 22.5523 20.5523 23 20 23H11C10.4477 23 10 22.5523 10 22V8Z" fill="white"/>
  
  <!-- Líneas del documento -->
  <rect x="12" y="13" width="6" height="0.8" fill="#3B82F6"/>
  <rect x="12" y="15" width="5" height="0.8" fill="#3B82F6"/>
  <rect x="12" y="17" width="6" height="0.8" fill="#3B82F6"/>
  
  <!-- Icono de IA/robot -->
  <circle cx="22" cy="10" r="3" fill="#10B981"/>
  <rect x="21" y="8" width="2" height="1.5" rx="0.5" fill="white"/>
  <circle cx="21.5" cy="8.5" r="0.3" fill="#10B981"/>
  <circle cx="22.5" cy="8.5" r="0.3" fill="#10B981"/>
  
  <!-- Gradiente -->
  <defs>
    <linearGradient id="gradient" x1="0%" y1="0%" x2="100%" y2="100%">
      <stop offset="0%" style="stop-color:#3B82F6;stop-opacity:1" />
      <stop offset="100%" style="stop-color:#1E40AF;stop-opacity:1" />
    </linearGradient>
  </defs>
</svg> 