<svg width="40" height="40" viewBox="0 0 40 40" fill="none" xmlns="http://www.w3.org/2000/svg">
  <!-- Fondo del círculo -->
  <circle cx="20" cy="20" r="18" fill="url(#gradient)" stroke="#3B82F6" stroke-width="2"/>
  
  <!-- Icono de documento/ley -->
  <path d="M12 10C12 8.89543 12.8954 8 14 8H20L26 14V28C26 29.1046 25.1046 30 24 30H14C12.8954 30 12 29.1046 12 28V10Z" fill="white"/>
  
  <!-- Líneas del documento -->
  <rect x="15" y="16" width="8" height="1" fill="#3B82F6"/>
  <rect x="15" y="19" width="6" height="1" fill="#3B82F6"/>
  <rect x="15" y="22" width="7" height="1" fill="#3B82F6"/>
  
  <!-- Icono de IA/robot -->
  <circle cx="28" cy="12" r="4" fill="#10B981"/>
  <rect x="26" y="10" width="4" height="2" rx="1" fill="white"/>
  <circle cx="27" cy="11" r="0.5" fill="#10B981"/>
  <circle cx="29" cy="11" r="0.5" fill="#10B981"/>
  
  <!-- Gradiente -->
  <defs>
    <linearGradient id="gradient" x1="0%" y1="0%" x2="100%" y2="100%">
      <stop offset="0%" style="stop-color:#3B82F6;stop-opacity:1" />
      <stop offset="100%" style="stop-color:#1E40AF;stop-opacity:1" />
    </linearGradient>
  </defs>
</svg> 